{"title":"Scott Pilgrim Vs The World DVDRiP AC3 XViD - IMAGiNE ","uid":5923035,"size":2097085043,"categoryP":"video","categoryS":"movies","magnet":"?xt=urn:btih:1fe4066e561670e42f0da0a5de43889bb3df5ee4&amp;dn=Scott+Pilgrim+Vs+The+World+DVDRiP+AC3+XViD+-+IMAGiNE+&amp;tr=udp%3A%2F%2Ftracker.openbittorrent.com%3A80&amp;tr=udp%3A%2F%2Fopen.demonii.com%3A1337&amp;tr=udp%3A%2F%2Ftracker.coppersurfer.tk%3A6969&amp;tr=udp%3A%2F%2Fexodus.desync.com%3A6969","seeders":1,"leechers":0,"uploader":"hiest","files":-1,"time":1288494437,"description":"Ripper ...........: IMAGiNE IMDB Rating.......:8.2/10 \nVideo Codec.......: XVID Release Date......:30/10/10\nAudio Codec.......:AC3 Theatre Date......:13/08/10\nAudio Bitrate.....:448 Runtime.......:1h 52mn\nSubtitles.........:NIL Language..........:ENGLISH\nResolution...... 720 x 384 IMDb URL..........:http://www.imdb.com/title/tt0446029/\n\n\nDETAILS:\n\nVideo\nID : 0\nFormat : MPEG-4 Visual\nFormat profile : Advanced Simple@L5\nFormat settings, BVOP : Yes\nFormat settings, QPel : No\nFormat settings, GMC : No warppoints\nFormat settings, Matrix : Default (H.263)\nMuxing mode : Packed bitstream\nCodec ID : XVID\nCodec ID/Hint : XviD\nDuration : 1h 52mn\nBit rate : 2 016 Kbps\nWidth : 720 pixels\nHeight : 384 pixels\nDisplay aspect ratio : 1.875\nFrame rate : 23.976 fps\nColor space : YUV\nChroma subsampling : 4:2:0\nBit depth : 8 bits\nScan type : Progressive\nBits/(Pixel*Frame) : 0.304\nStream size : 1.58 GiB (82%)\nWriting library : XviD 1.1.2 (UTC 2006-11-01)\n\nAudio\nID : 1\nFormat : AC-3\nFormat/Info : Audio Coding 3\nMode extension : CM (complete main)\nCodec ID : 2000\nDuration : 1h 52mn\nBit rate mode : Constant\nBit rate : 448 Kbps\nChannel(s) : 6 channels\nChannel positions : Front: L C R, Side: L R, LFE\nSampling rate : 48.0 KHz\nBit depth : 16 bits\nStream size : 360 MiB (18%)\nAlignment : Aligned on interleaves\nInterleave, duration : 42 ms (1.00 video frame)\nInterleave, preload duration : 512 ms\n\n\nSOURCES:\n\nVIDEO:Scott.Pilgrim.vs.the.World.DVDR-BLOW ........... Thanks\nAUDIO:Scott.Pilgrim.vs.the.World.DVDR-BLOW ........... Thanks\n\nNOTES:\n\nIMAGiNE bringing you another release..........Scott Pilgrim Vs The World\n\nOk late getting this out and yes theres some brrips out now aswell but we had this done so what the hell,if you\nwant it grab it if not \nAnyway this was a straight forward rip of blows dvdr .....just thought the dvdr was quite dark and dull looking with \nthe colours off ....so do the usual and made a script to fix the colours,brighten it up and make it a bit sharper.\nAudio we used the 5.1 track off the dvdr \nAlso opted for a bigger size to keep a good bitrate aswell as the untouched audio track.\n\nEnjoy folks\n\n\n\n\n\n================================== &lt;a href=&quot;\nhttp://thepiratebay.se/user/hiest&quot; rel=&quot;nofollow&quot; target=&quot;_NEW&quot;&gt;\nhttp://thepiratebay.se/user/hiest&lt;/a&gt;\n==================================\n\n\n\n\n\nScreenshots:\n &lt;a href=&quot;\nhttp://www.postimg.com/image/24000/23293.jpg&quot; rel=&quot;nofollow&quot; target=&quot;_NEW&quot;&gt;\nhttp://www.postimg.com/image/24000/23293.jpg&lt;/a&gt;\n &lt;a href=&quot;\nhttp://www.postimg.com/image/24000/23294.jpg&quot; rel=&quot;nofollow&quot; target=&quot;_NEW&quot;&gt;\nhttp://www.postimg.com/image/24000/23294.jpg&lt;/a&gt;\n","torrent":{"xt":"urn:btih:1fe4066e561670e42f0da0a5de43889bb3df5ee4","amp;dn":"Scott+Pilgrim+Vs+The+World+DVDRiP+AC3+XViD+-+IMAGiNE+","amp;tr":["udp%3A%2F%2Ftracker.openbittorrent.com%3A80","udp%3A%2F%2Fopen.demonii.com%3A1337","udp%3A%2F%2Ftracker.coppersurfer.tk%3A6969","udp%3A%2F%2Fexodus.desync.com%3A6969"],"infoHash":"1fe4066e561670e42f0da0a5de43889bb3df5ee4","infoHashBuffer":{"type":"Buffer","data":[31,228,6,110,86,22,112,228,47,13,160,165,222,67,136,155,179,223,94,228]},"announce":[],"urlList":[]}}